#!OML:ASF H:\Terrain\Patient Classification 1\Animal2\Wednesday\Animal2.ASF
:FULLY-SPECIFIED
:DEGREES
642
root 13.8108 17.7467 4.18094 41.0771 37.7162 5.14716
lowerback 22.5015 -1.0612 1.71241
upperback -10.4652 -0.905193 -0.246211
thorax -25.4552 -0.660279 -0.890069
lowerneck 3.83353 4.2982 14.5145
upperneck -40.1011 2.98364 -20.7804
head -13.2641 2.19023 -12.047
rclavicle 8.18993e-014 2.98177e-014
rhumerus 66.2596 -17.2379 -15.7755
rradius 45.8785
rwrist -23.5732
rhand -18.7525 2.51669
rfingers 7.12502
rthumb 7.544 -27.3288
lclavicle 8.18993e-014 2.98177e-014
lhumerus 42.6086 26.4983 1.55145
lradius 42.3283
lwrist 67.9198
lhand -29.286 32.4459
lfingers 7.12502
lthumb -2.62793 62.4095
rfemur -64.5983 -4.64572 16.1737
rtibia 37.5927
rfoot -11.7065 0.508209
rtoes 31.4183
lfemur -59.7736 -6.83184 1.15277
ltibia 22.5186
lfoot 2.667 11.0822
ltoes -12.289
643
root 13.778 17.7365 4.19829 41.183 37.6903 5.20919
lowerback 22.4888 -1.07961 1.59416
upperback -10.3049 -0.945971 -0.117094
thorax -25.2058 -0.637619 -0.650502
lowerneck 3.95858 4.35537 14.1741
upperneck -40.1903 3.11997 -20.4668
head -13.3253 2.26644 -11.8604
rclavicle 7.63333e-014 -1.55052e-014
rhumerus 66.1644 -17.1732 -15.5227
rradius 46.1335
rwrist -23.1234
rhand -18.7693 2.71249
rfingers 7.12502
rthumb 7.52784 -27.1336
lclavicle 7.63333e-014 -1.55052e-014
lhumerus 41.8817 26.8184 1.42169
lradius 41.9395
lwrist 67.6246
lhand -29.0992 32.2242
lfingers 7.12502
lthumb -2.44748 62.1899
rfemur -64.7627 -4.70478 16.3563
rtibia 37.7018
rfoot -11.8031 0.683166
rtoes 30.544
lfemur -60.0743 -6.61055 1.04964
ltibia 22.996
lfoot 1.76983 11.2747
ltoes -3.34877
644
root 13.7527 17.7272 4.21313 41.1734 37.7753 5.22293
lowerback 22.6075 -1.15482 1.76644
upperback -10.2272 -0.984323 -0.0844077
thorax -25.1747 -0.677205 -0.691931
lowerneck 4.13001 4.39224 14.1105
upperneck -40.0156 3.24442 -20.2807
head -13.2611 2.31773 -11.7433
rclavicle -1.11319e-014 -8.34896e-015
rhumerus 65.8997 -16.9218 -15.3713
rradius 46.3578
rwrist -22.9047
rhand -18.5594 3.14609
rfingers 7.12502
rthumb 7.73041 -26.6926
lclavicle -1.11319e-014 -8.34896e-015
lhumerus 40.7695 26.9653 1.40321
lradius 42.0201
lwrist 67.1767
lhand -29.1664 32.0146
lfingers 7.12502
lthumb -2.51241 61.9795
rfemur -64.8103 -4.82672 16.6037
rtibia 37.7987
rfoot -11.879 0.903729
rtoes 30.6005
lfemur -60.3105 -6.58814 1.13123
ltibia 23.4727
lfoot 1.10415 11.4032
ltoes 1.06314
645
root 13.7327 17.7198 4.22481 41.1952 37.8509 5.17231
lowerback 22.6697 -1.12432 1.98827
upperback -10.1633 -0.866708 -0.0966386
thorax -25.1231 -0.669269 -0.884173
lowerneck 3.7073 4.46205 14.3145
upperneck -39.5823 3.32236 -20.3696
head -12.9313 2.34156 -11.7129
rclavicle 7.13637e-014 -7.15625e-015
rhumerus 65.0728 -16.7643 -14.7039
rradius 46.7193
rwrist -23.1189
rhand -17.635 3.39845
rfingers 7.12502
rthumb 8.62256 -26.4055
lclavicle 7.13637e-014 -7.15625e-015
lhumerus 40.8614 27.1612 1.83299
lradius 41.3799
lwrist 66.7191
lhand -29.1447 32.0801
lfingers 7.12502
lthumb -2.49141 62.0453
rfemur -64.9426 -4.9325 16.8941
rtibia 37.8911
rfoot -12.0108 1.02941
rtoes 30.5667
lfemur -60.6039 -6.62634 1.34196
ltibia 23.9216
lfoot 1.41228 11.4724
ltoes -2.88718
646
root 13.7113 17.7156 4.24046 41.1646 37.8646 5.05562
lowerback 22.7192 -1.12493 2.20756
upperback -10.1925 -0.792234 -0.109999
thorax -25.2003 -0.67914 -1.05758
lowerneck 4.0271 4.41431 14.3924
upperneck -39.504 3.33923 -20.2556
head -12.9674 2.32969 -11.6868
rclavicle 2.40529e-014 2.38542e-015
rhumerus 64.356 -16.4143 -14.313
rradius 47.0003
rwrist -23.2291
rhand -16.7839 2.57152
rfingers 7.12502
rthumb 9.44382 -27.1969
lclavicle 2.40529e-014 2.38542e-015
lhumerus 40.1863 27.0954 1.8847
lradius 41.3692
lwrist 66.6129
lhand -28.8492 32.2259
lfingers 7.12502
lthumb -2.20609 62.1942
rfemur -65.0926 -4.89468 17.1416
rtibia 38.031
rfoot -12.2123 1.23181
rtoes 32.2907
lfemur -60.7892 -6.33505 1.27402
ltibia 24.3023
lfoot 2.05259 11.1951
ltoes -6.91612
647
root 13.6908 17.7141 4.25997 41.1025 37.7623 5.05203
lowerback 22.8208 -1.12353 2.13353
upperback -10.0678 -0.804103 -0.054782
thorax -25.082 -0.662806 -0.943008
lowerneck 3.47924 4.57367 14.42
upperneck -39.2582 3.53363 -20.2244
head -12.6824 2.41066 -11.5931
rclavicle -5.56597e-015 4.69132e-014
rhumerus 64.1207 -16.2994 -14.2478
rradius 46.8507
rwrist -22.9831
rhand -16.212 1.09366
rfingers 7.12502
rthumb 9.99563 -28.649
lclavicle -5.56597e-015 4.69132e-014
lhumerus 39.1816 27.4159 1.97644
lradius 41.5795
lwrist 66.9819
lhand -28.4682 32.2579
lfingers 7.12502
lthumb -1.83808 62.2297
rfemur -65.1868 -4.83551 17.2224
rtibia 38.2461
rfoot -12.5293 1.40563
rtoes 33.9968
lfemur -60.837 -5.9296 0.851578
ltibia 24.6562
lfoot 2.46766 10.7815
ltoes -9.02336
648
root 13.6706 17.7056 4.28302 41.1861 37.5207 5.22731
lowerback 22.7865 -1.06277 1.79338
upperback -10.0821 -0.824663 0.00157423
thorax -25.073 -0.606621 -0.672807
lowerneck 3.91177 4.50484 14.2956
upperneck -39.1763 3.49562 -20.0917
head -12.7627 2.39993 -11.5265
rclavicle -1.98785e-015 4.13472e-014
rhumerus 63.8504 -15.8713 -14.0091
rradius 46.7696
rwrist -23.005
rhand -15.6554 0.618682
rfingers 7.12502
rthumb 10.5326 -29.0974
lclavicle -1.98785e-015 4.13472e-014
lhumerus 38.3053 27.4327 2.17535
lradius 41.6423
lwrist 67.617
lhand -29.0425 32.7076
lfingers 7.12502
lthumb -2.39276 62.674
rfemur -65.3355 -4.76495 17.1171
rtibia 38.5251
rfoot -12.869 1.40406
rtoes 34.3417
lfemur -60.9051 -5.63589 0.374018
ltibia 24.9862
lfoot 2.70959 10.5365
ltoes -10.9162
